<svg id="Layer_1" data-name="Layer 1" xmlns="http://www.w3.org/2000/svg" viewBox="0 0 700 70.47"><defs><style>.cls-1{fill:#fff;}</style></defs><path class="cls-1" d="M16.44,70.47C6.54,70.47,0,63.53,0,54.23v-38C0,6.94,6.54,0,16.44,0S31.87,6.54,31.87,15.63v9.8h-9.6v-10c0-3.27-1.84-5.62-5.62-5.62S11,12.15,11,15.32V55.15c0,3.17,1.84,5.52,5.62,5.52s5.62-2.35,5.62-5.62V44.94h9.6v9.91C31.87,63.93,26.45,70.47,16.44,70.47Z"/><path class="cls-1" d="M78.34,69.25,76.61,56H66.7l-2,13.28H54.75l11.34-68H78l11.34,68ZM72,19.1,68,46.88h7.35Z"/><path class="cls-1" d="M131.15,69.25H120.63l-12.25-68h11.13l6.64,47.6,7-47.6h10.41Z"/><path class="cls-1" d="M168.23,69.25v-68H195.4v9.6H179.06v18.8H190.4v9H179.06V59.34H195.4v9.91Z"/><path class="cls-1" d="M235.65,70.47c-9.81,0-15.94-6-15.94-15.62v-6h9.91v5.82c0,4.29,1.94,6.74,5.72,6.74s5.72-2.35,5.72-6.13c0-5.92-3-10.31-8.68-16.34-5.62-5.62-12.15-13.58-12.15-22.26C220.23,7.46,225.54,0,236.06,0c9.09,0,15,6.33,15,15.63v6.12h-9.81V15.63c0-3.78-1.73-6.34-5.2-6.34-3.17,0-5.31,2.05-5.31,5.52,0,6.64,3,9.91,9.29,16.65,6.64,6.84,11.54,13.68,11.54,22.26C251.58,64.55,244.53,70.47,235.65,70.47Z"/><path class="cls-1" d="M327.48,70.47c-9.81,0-16.24-6.64-16.24-16.14V16.14c0-9.4,6.43-16.14,16.24-16.14s16.24,6.74,16.24,16.14V54.33C343.72,63.83,337.28,70.47,327.48,70.47Zm5.31-55.15c0-3.27-1.94-5.52-5.31-5.52s-5.31,2.25-5.31,5.52V55.15c0,3.27,1.94,5.52,5.31,5.52s5.31-2.25,5.31-5.52Z"/><path class="cls-1" d="M381.92,10.62V30.23h11.75v9.3H381.92V69.25H371.09v-68h26.46v9.4Z"/><path class="cls-1" d="M471.09,70.47c-9.8,0-15.93-6-15.93-15.62v-6h9.91v5.82c0,4.29,1.94,6.74,5.72,6.74s5.71-2.35,5.71-6.13c0-5.92-3-10.31-8.68-16.34-5.61-5.62-12.15-13.58-12.15-22.26C455.67,7.46,461,0,471.5,0c9.09,0,15,6.33,15,15.63v6.12h-9.8V15.63c0-3.78-1.74-6.34-5.21-6.34-3.17,0-5.31,2.05-5.31,5.52,0,6.64,3,9.91,9.29,16.65C482.12,38.3,487,45.14,487,53.72,487,64.55,480,70.47,471.09,70.47Z"/><path class="cls-1" d="M531.26,11.13V69.25H520.43V11.13H509.91V1.22h31.66v9.91Z"/><path class="cls-1" d="M566.7,69.25v-68h27.17v9.6H577.53v18.8h11.34v9H577.53V59.34h16.34v9.91Z"/><path class="cls-1" d="M620.13,69.25v-68h27.16v9.6H631v18.8h11.34v9H631V59.34h16.34v9.91Z"/><path class="cls-1" d="M673.55,69.25v-68h10.83V59.44H700v9.81Z"/></svg>